<?xml version="1.0" encoding="UTF-8" standalone="no"?>
<!-- Created with Inkscape (http://www.inkscape.org/) -->

<svg
   width="90mm"
   height="90mm"
   viewBox="0 0 90 90"
   version="1.1"
   id="svg296"
   xml:space="preserve"
   inkscape:version="1.2.2 (732a01da63, 2022-12-09)"
   sodipodi:docname="dibujo.svg"
   xmlns:inkscape="http://www.inkscape.org/namespaces/inkscape"
   xmlns:sodipodi="http://sodipodi.sourceforge.net/DTD/sodipodi-0.dtd"
   xmlns="http://www.w3.org/2000/svg"
   xmlns:svg="http://www.w3.org/2000/svg"><sodipodi:namedview
     id="namedview298"
     pagecolor="#000000"
     bordercolor="#000000"
     borderopacity="0.25"
     inkscape:showpageshadow="2"
     inkscape:pageopacity="0"
     inkscape:pagecheckerboard="0"
     inkscape:deskcolor="#d1d1d1"
     inkscape:document-units="mm"
     showgrid="false"
     inkscape:zoom="0.914906"
     inkscape:cx="-84.161651"
     inkscape:cy="148.64915"
     inkscape:window-width="2560"
     inkscape:window-height="1369"
     inkscape:window-x="-8"
     inkscape:window-y="-8"
     inkscape:window-maximized="1"
     inkscape:current-layer="layer1" /><defs
     id="defs293"><clipPath
       clipPathUnits="userSpaceOnUse"
       id="clipPath25"><path
         d="M 0,560 H 960 V 0 H 0 Z"
         id="path23" /></clipPath></defs><g
     inkscape:label="Capa 1"
     inkscape:groupmode="layer"
     id="layer1"
     transform="translate(-74.355053,-109.04546)"><g
       id="g766"
       transform="translate(27.35358,27.842801)"
       style="fill:#ff0000;stroke:#ffffff;stroke-opacity:1"><g
         id="g71"
         transform="matrix(0.35277777,0,0,-0.35277777,114.43492,85.052684)"
         style="fill:#ff0000;stroke:#ffffff;stroke-opacity:1"><path
           d="m 0,0 c 13.246,-16.415 24.452,-33.773 27.316,-55.102 1.125,-8.37 -1.607,-15.632 -7.837,-21.245 -4.803,-4.327 -9.834,-8.496 -15.197,-12.091 -19.769,-13.251 -35.926,-29.817 -47.751,-50.539 -1.739,-3.047 -3.745,-5.94 -6.255,-9.892 -3.048,4.911 -5.916,8.992 -8.1,13.411 -0.575,1.164 0.702,3.52 1.573,5.081 11.861,21.251 28.617,37.761 49.107,50.69 4.643,2.93 9.066,6.232 13.439,9.561 7.803,5.939 11.158,14.08 8.694,23.42 C 11.397,-33.091 6.769,-19.75 2.522,-6.31 1.841,-4.156 0.848,-2.101 0,0 Z"
           style="fill:#ff0000;stroke:#ffffff;stroke-width:3;stroke-linecap:butt;stroke-linejoin:miter;stroke-miterlimit:10;stroke-dasharray:none;stroke-opacity:1"
           id="path73" /></g><g
         id="g75"
         transform="matrix(0.35277777,0,0,-0.35277777,69.38256,84.466826)"
         style="fill:#ff0000;stroke:#ffffff;stroke-opacity:1"><path
           d="m 0,0 c -4.677,-14.945 -9.813,-30.144 -14.136,-45.572 -3.259,-11.632 0.49,-21.235 10.661,-28.16 6.658,-4.534 13.072,-9.433 19.812,-13.835 17.729,-11.582 30.469,-27.612 41.006,-45.603 0.799,-1.363 1,-3.822 0.307,-5.168 -2.027,-3.939 -4.648,-7.573 -7.491,-12.041 -2.397,3.72 -4.53,6.715 -6.343,9.894 -11.715,20.547 -27.725,36.993 -47.31,50.122 -4.398,2.948 -8.539,6.292 -12.693,9.585 -9.857,7.813 -12.684,17.941 -9.802,29.984 C -21.364,-31.463 -11.057,-15.127 0,0 Z"
           style="fill:#ff0000;stroke:#ffffff;stroke-width:3;stroke-linecap:butt;stroke-linejoin:miter;stroke-miterlimit:10;stroke-dasharray:none;stroke-opacity:1"
           id="path77" /></g><g
         id="g79"
         transform="matrix(0.35277777,0,0,-0.35277777,122.61118,126.14406)"
         style="fill:#ff0000;stroke:#ffffff;stroke-opacity:1"><path
           d="m 0,0 c -7.825,-13.41 -16.226,-23.858 -27.462,-31.82 -5.715,-4.05 -12.132,-3.912 -18.656,-2.522 -8.793,1.874 -12.702,-1.334 -10.2,-9.701 3.977,-13.3 2.265,-24.872 -7.265,-35.152 -1.308,-1.412 -2.17,-3.237 -3.73,-5.62 -4.811,7.589 -9.471,14.691 -13.774,22.003 -0.608,1.033 0.107,3.347 0.909,4.63 8.422,13.473 16.954,26.877 25.558,40.235 0.902,1.4 2.27,3.021 3.74,3.452 C -34.56,-9.71 -18.176,-5.14 0,0 Z"
           style="fill:#ff0000;stroke:#ffffff;stroke-width:3;stroke-linecap:butt;stroke-linejoin:miter;stroke-miterlimit:10;stroke-dasharray:none;stroke-opacity:1"
           id="path81" /></g><g
         id="g83"
         transform="matrix(0.35277777,0,0,-0.35277777,62.012997,126.32923)"
         style="fill:#ff0000;stroke:#ffffff;stroke-opacity:1"><path
           d="m 0,0 c 16.379,-4.621 32.777,-9.183 49.109,-13.965 1.457,-0.427 2.78,-2.101 3.683,-3.506 8.495,-13.207 16.811,-26.53 25.366,-39.697 1.721,-2.648 1.943,-4.514 0.055,-7.236 -4.352,-6.28 -8.281,-12.853 -12.741,-19.87 -4.548,6.957 -8.931,13.423 -12.995,20.086 -0.787,1.289 -0.622,3.379 -0.389,5.029 0.821,5.825 1.889,11.615 2.811,17.426 0.928,5.849 -1.818,9.79 -7.173,8.271 -18.113,-5.139 -28.464,5.592 -38.331,17.59 -3.826,4.653 -7.092,9.767 -10.612,14.671 z"
           style="fill:#ff0000;stroke:#ffffff;stroke-width:3;stroke-linecap:butt;stroke-linejoin:miter;stroke-miterlimit:10;stroke-dasharray:none;stroke-opacity:1"
           id="path85" /></g><g
         id="g87"
         transform="matrix(0.35277777,0,0,-0.35277777,91.984643,150.30468)"
         style="fill:#ff0000;stroke:#ffffff;stroke-opacity:1"><path
           d="m 0,0 c 4.942,-7.764 9.438,-14.597 13.626,-21.612 0.773,-1.295 0.761,-3.459 0.331,-5.004 -2.468,-8.857 -5.404,-17.588 -7.686,-26.488 -0.998,-3.891 -3.476,-3.587 -6.216,-3.556 -2.661,0.03 -5.289,-0.553 -6.301,3.382 -2.336,9.09 -5.249,18.031 -7.721,27.09 -0.407,1.489 -0.282,3.579 0.486,4.857 C -9.353,-14.458 -4.944,-7.754 0,0 Z"
           style="fill:#ff0000;stroke:#ffffff;stroke-width:3;stroke-linecap:butt;stroke-linejoin:miter;stroke-miterlimit:10;stroke-dasharray:none;stroke-opacity:1"
           id="path89" /></g><g
         id="g91"
         transform="matrix(0.35277777,0,0,-0.35277777,92.003764,135.41033)"
         style="fill:#ff0000;stroke:#ffffff;stroke-opacity:1"><path
           d="M 0,0 C 10.125,-12.656 10.095,-15.095 0,-26.408 -10.113,-15.465 -10.147,-11.967 0,0 Z"
           style="fill:#ff0000;stroke:#ffffff;stroke-width:3;stroke-linecap:butt;stroke-linejoin:miter;stroke-miterlimit:10;stroke-dasharray:none;stroke-opacity:1"
           id="path93" /></g></g></g></svg>
